<svg xmlns="http://www.w3.org/2000/svg" viewBox="0 0 900 520" width="900" height="520">
  <defs>
    <style>
      .t { font-family: Georgia, 'Times New Roman', serif; fill: #111; }
      .mono { font-family: 'SF Mono', 'Fira Code', monospace; }
      .muted { fill: #555; }
      .border { stroke: #d6d6d6; stroke-width: 1; }
      .success { fill: #2d7a3a; }
      .warning { fill: #a67c00; }
    </style>
  </defs>

  <rect width="900" height="520" rx="8" fill="#fff" stroke="#d6d6d6" stroke-width="1"/>

  <rect width="900" height="32" rx="8" fill="#fafafa"/>
  <rect y="24" width="900" height="8" fill="#fafafa"/>
  <circle cx="20" cy="16" r="5" fill="#d6d6d6"/>
  <circle cx="38" cy="16" r="5" fill="#d6d6d6"/>
  <circle cx="56" cy="16" r="5" fill="#d6d6d6"/>
  <text x="450" y="20" text-anchor="middle" class="mono muted" font-size="11">localhost:9500</text>

  <line x1="32" y1="80" x2="620" y2="80" class="border"/>

  <text x="32" y="68" class="t" font-size="14" font-weight="600" letter-spacing="2">BATON</text>
  <text x="620" y="68" text-anchor="end" class="mono muted" font-size="12">myapp.com</text>

  <text x="32" y="112" class="t muted" font-size="10" font-weight="600" letter-spacing="1.5">SERVICES</text>

  <line x1="32" y1="165" x2="620" y2="165" class="border"/>
  <text x="32" y="152" class="t" font-size="14" font-weight="600">db</text>
  <text x="32" y="158" class="mono muted" font-size="11" dy="8">postgres:16  :5432</text>
  <rect x="490" y="137" width="70" height="22" fill="none" stroke="#d6d6d6" stroke-width="1"/>
  <text x="525" y="152" text-anchor="middle" class="mono muted" font-size="9" letter-spacing="0.5">CONTAINER</text>
  <circle cx="582" cy="148" r="4" class="success"/>
  <text x="592" y="152" class="t success" font-size="12" font-weight="600">running</text>

  <line x1="32" y1="210" x2="620" y2="210" class="border"/>
  <text x="32" y="197" class="t" font-size="14" font-weight="600">redis</text>
  <text x="32" y="203" class="mono muted" font-size="11" dy="8">redis:7  :6379</text>
  <rect x="490" y="182" width="70" height="22" fill="none" stroke="#d6d6d6" stroke-width="1"/>
  <text x="525" y="197" text-anchor="middle" class="mono muted" font-size="9" letter-spacing="0.5">CONTAINER</text>
  <circle cx="582" cy="193" r="4" class="success"/>
  <text x="592" y="197" class="t success" font-size="12" font-weight="600">running</text>

  <line x1="32" y1="255" x2="620" y2="255" class="border"/>
  <text x="32" y="242" class="t" font-size="14" font-weight="600">api</text>
  <text x="32" y="248" class="mono muted" font-size="11" dy="8">./api serve  :4000</text>
  <rect x="490" y="227" width="70" height="22" fill="none" stroke="#d6d6d6" stroke-width="1"/>
  <text x="525" y="242" text-anchor="middle" class="mono muted" font-size="9" letter-spacing="0.5">PROCESS</text>
  <circle cx="582" cy="238" r="4" class="success"/>
  <text x="592" y="242" class="t success" font-size="12" font-weight="600">running</text>

  <line x1="32" y1="300" x2="620" y2="300" class="border"/>
  <text x="32" y="287" class="t" font-size="14" font-weight="600">worker</text>
  <text x="32" y="293" class="mono muted" font-size="11" dy="8">./worker</text>
  <rect x="490" y="272" width="70" height="22" fill="none" stroke="#d6d6d6" stroke-width="1"/>
  <text x="525" y="287" text-anchor="middle" class="mono muted" font-size="9" letter-spacing="0.5">PROCESS</text>
  <circle cx="582" cy="283" r="4" class="success"/>
  <text x="592" y="287" class="t success" font-size="12" font-weight="600">running</text>

  <line x1="32" y1="345" x2="620" y2="345" class="border"/>
  <text x="32" y="332" class="t" font-size="14" font-weight="600">reports</text>
  <text x="32" y="338" class="mono muted" font-size="11" dy="8">0 2 * * *</text>
  <rect x="490" y="317" width="70" height="22" fill="none" stroke="#d6d6d6" stroke-width="1"/>
  <text x="525" y="332" text-anchor="middle" class="mono muted" font-size="9" letter-spacing="0.5">CRON</text>
  <circle cx="582" cy="328" r="4" fill="#555"/>
  <text x="592" y="332" class="t muted" font-size="12" font-weight="600">scheduled</text>

  <text x="660" y="112" class="t muted" font-size="10" font-weight="600" letter-spacing="1.5">OVERVIEW</text>

  <line x1="660" y1="155" x2="868" y2="155" class="border"/>
  <text x="660" y="148" class="mono t" font-size="22" font-weight="600">5</text>
  <text x="660" y="145" class="mono t" font-size="22" font-weight="600" dx="42">4</text>
  <text x="660" y="168" class="muted" font-size="9" letter-spacing="0.5">SERVICES</text>
  <text x="702" y="168" class="muted" font-size="9" letter-spacing="0.5">RUNNING</text>
  <line x1="764" y1="125" x2="764" y2="155" class="border"/>
  <text x="774" y="148" class="mono t" font-size="22" font-weight="600">local</text>
  <text x="774" y="168" class="muted" font-size="9" letter-spacing="0.5">AGENTS</text>

  <line x1="660" y1="195" x2="868" y2="195" class="border"/>
  <text x="660" y="188" class="mono t" font-size="22" font-weight="600">2m</text>
  <text x="660" y="208" class="muted" font-size="9" letter-spacing="0.5">UPTIME</text>

  <text x="868" y="500" text-anchor="end" class="mono muted" font-size="10">updated 14:32:01</text>
</svg>
